<svg version="1.2" xmlns="http://www.w3.org/2000/svg" viewBox="0 0 30 30" width="30" height="30">
	<title>Vector Smart Object-ai</title>
	<style>
		.s0 { fill: #ffffff } 
		.s1 { fill: #bdc3c7 } 
		.s2 { fill: #414f6b } 
		.s3 { fill: #ecf0f1 } 
	</style>
	<g id="Layer 1">
		<g id="&lt;Group&gt;">
			<path id="&lt;Path&gt;" class="s0" d="m30 15q0 1.8-0.4 3.4c-5.5 3-6.8 2.8-13.9 2.8-4.6 0-9.4 6.7-12.2 3.5-2.2-2.6-3.5-6-3.5-9.7 0-8.3 6.7-15 15-15 8.3 0 15 6.7 15 15z"/>
			<path id="&lt;Path&gt;" class="s1" d="m15 30c7.1 0 13.1-5 14.6-11.6l-2.8-4-2.7 1.7-4.9-7-8.3 10.7-2.9-1.2-4.5 6.1c2.8 3.2 6.9 5.3 11.5 5.3z"/>
			<path id="&lt;Path&gt;" class="s2" d="m19.2 9.1l0.4 9.5 4.5-2.5z"/>
			<path id="&lt;Path&gt;" class="s3" d="m5.3 24.7l2.7 0.7 2.6 3.3 4.8-4.3-1.9-4.4 5.7-10.9-8.3 10.7-2.9-1.2-3 4z"/>
			<path id="&lt;Path&gt;" class="s2" d="m8 18.6v2.3l1.2-0.5-0.6 2.6 3.2-4.4z"/>
			<path id="&lt;Path&gt;" class="s2" d="m18.2 24.3l2.3-3.5 4-1.2 1.9 3.9-2.3-1.6-4.5 4.8z"/>
			<path id="&lt;Path&gt;" class="s2" d="m17.2 15.4l-2.2 4.5 1.6 2.5z"/>
			<path id="&lt;Path&gt;" class="s3" d="m25.3 16.9l1.1 3.4 1.4-1.4z"/>
			<path id="&lt;Path&gt;" class="s1" d="m10.6 24.5l1.5-2.1-0.7 2.7z"/>
		</g>
	</g>
</svg>